<svg xmlns="http://www.w3.org/2000/svg" viewBox="0 0 623.02 555.71"><defs><style>.cls-1{fill:none;stroke:#d19f94;stroke-miterlimit:10;stroke-width:5px;}.cls-2{fill:#1d1d1b;}.cls-3{fill:#d19f94;}</style></defs><title>logo</title><g id="Calque_2" data-name="Calque 2"><g id="Calque_1-2" data-name="Calque 1"><polygon class="cls-1" points="428.48 378.62 309.3 431.74 190.13 378.62 71.7 324.49 70.95 217.24 71.7 109.99 190.13 55.85 309.3 2.74 428.48 55.85 546.9 109.99 547.65 217.24 546.9 324.49 428.48 378.62"/><polygon class="cls-1" points="309.51 378.13 190.68 377.66 130.66 297.48 71.77 216.78 130.57 136.05 190.51 55.82 309.34 55.27 428.18 55.75 488.2 135.93 547.09 216.63 488.28 297.36 428.35 377.58 309.51 378.13"/><polyline class="cls-1" points="190.51 55.82 309.16 216.7 428.18 55.75"/><line class="cls-1" x1="428.35" y1="377.58" x2="309.16" y2="216.7"/><line class="cls-1" x1="71.77" y1="216.78" x2="428.48" y2="378.62"/><path class="cls-2" d="M86.68,460.31v91.32H80V477.32L61.62,497.67q-9.52,10.54-18.2,20.21L6.7,477.05v74.58H0V460.31l43.42,47.91Z"/><path class="cls-2" d="M143.19,459.56l41.28,91.05a19.8,19.8,0,0,0-3.12.75,21.59,21.59,0,0,1-3.12.75L161,515.63H125.06L116.68,534q-2.13,4.62-4.26,9.32t-4.11,9l-1.6-.27a14.27,14.27,0,0,1-1.76-.41l-2.89-.68Zm15.23,51a30.6,30.6,0,0,1-1.22-2.87c-.4-1.1-.81-2.14-1.22-3.14-1.11-2.55-2.18-5-3.19-7.45s-2-4.85-3-7.31l-6.55-16.12L127.5,510.6Z"/><path class="cls-2" d="M204.73,461.12v89.7h-7v-89.7Z"/><path class="cls-2" d="M293.53,526.39a20,20,0,0,1-3,10.88,25.61,25.61,0,0,1-8,8,37.67,37.67,0,0,1-11.81,4.9,61.24,61.24,0,0,1-14.39,1.64,68.9,68.9,0,0,1-7.09-.41c-2.58-.27-5.23-.63-7.92-1.09s-5.38-1-8.07-1.7-5.26-1.38-7.69-2.11l2.68-5,4,.82c1.22.27,2.7.59,4.43,1s3.56.73,5.5,1.09,3.84.66,5.72.89a44.9,44.9,0,0,0,5.12.34h6.42a38,38,0,0,0,10.24-1.37,29.44,29.44,0,0,0,8.63-3.87,19.41,19.41,0,0,0,5.95-6.26,16.65,16.65,0,0,0,2.22-8.65,11.3,11.3,0,0,0-1.15-4.69,17.74,17.74,0,0,0-2.51-4.15,19.16,19.16,0,0,0-5.1-4.36,26.13,26.13,0,0,0-5.87-2.52,36.24,36.24,0,0,0-6.24-1.22c-2.13-.23-4.32-.43-6.55-.61-3.56-.19-7.08-.48-10.59-.89a28.49,28.49,0,0,1-10.28-3.33h.15a23.84,23.84,0,0,1-8.83-7.76,19.3,19.3,0,0,1-3.51-11.3q0-8.84,7.24-15.17t19.57-8.51c1.12-.18,2.84-.36,5.18-.54s5.08-.28,8.23-.28a45.62,45.62,0,0,1,5.56.4q3.12.4,6.4,1.07t6.39,1.46q3.12.8,5.72,1.73l-2.59,5.55q-3.66-1.21-6.86-2t-6.17-1.29a50.25,50.25,0,0,0-5.86-.75q-2.89-.21-6.25-.21a50.31,50.31,0,0,0-10.28,1.1,37,37,0,0,0-9.6,3.34,22.29,22.29,0,0,0-7.15,5.74,12.86,12.86,0,0,0-2.82,8.4,14.33,14.33,0,0,0,2.36,7.24,16.67,16.67,0,0,0,5.88,6,25.65,25.65,0,0,0,8.94,3.07q4.5.62,9.24.89a93.34,93.34,0,0,1,11.22,1.29,33.34,33.34,0,0,1,11.07,4,24.23,24.23,0,0,1,8.78,8.43A20.26,20.26,0,0,1,293.53,526.39Z"/><path class="cls-2" d="M361.32,460.24a54.18,54.18,0,0,1,19.81,3.61,52.8,52.8,0,0,1,16.22,9.79,46.83,46.83,0,0,1,11,14.5,41.3,41.3,0,0,1,0,35.59,46.38,46.38,0,0,1-11,14.56,52.63,52.63,0,0,1-16.22,9.8,56.54,56.54,0,0,1-39.76,0,52.4,52.4,0,0,1-16.22-9.8,46.08,46.08,0,0,1-11-14.56,41.21,41.21,0,0,1,0-35.59,46.52,46.52,0,0,1,11-14.5,52.56,52.56,0,0,1,16.22-9.79A54.5,54.5,0,0,1,361.32,460.24ZM405.65,506a35.12,35.12,0,0,0-3.5-15.52,40.66,40.66,0,0,0-9.52-12.59,45.79,45.79,0,0,0-14.09-8.5,49.32,49.32,0,0,0-34.58,0,45.55,45.55,0,0,0-14.09,8.5,40.36,40.36,0,0,0-9.52,12.59,35.91,35.91,0,0,0,0,31,40.07,40.07,0,0,0,9.52,12.66,45.74,45.74,0,0,0,14.09,8.5,49.32,49.32,0,0,0,34.58,0,46,46,0,0,0,14.09-8.5,40.37,40.37,0,0,0,9.52-12.66A35.3,35.3,0,0,0,405.65,506Z"/><path class="cls-2" d="M508,460.44v95.27l-68.86-81.66v76.08h-6.7V456.22l68.85,81.66V460.44Z"/><path class="cls-3" d="M532.08,502a4.28,4.28,0,0,1,3.28,1.23A3.89,3.89,0,0,1,536.5,506a3.78,3.78,0,0,1-1.14,2.86,4.62,4.62,0,0,1-3.28,1.09,4.15,4.15,0,0,1-3-1.09A3.78,3.78,0,0,1,528,506a4,4,0,0,1,4.11-4Z"/><path class="cls-2" d="M623,547.62l-5.48,3.81L564.22,507.6l-2.28,2V551h-6.71V461.33h6.71v39.88l51.18-40.7,4.57,4.22-48.44,38.65Z"/></g></g></svg>