<svg xmlns="http://www.w3.org/2000/svg" viewBox="0 0 100 89.328">
  <defs>
    <style>
      .cls-1 {
        fill: none;
        stroke: #d19f94;
        stroke-miterlimit: 10;
      }

      .cls-2 {
        fill: #fff;
      }

      .cls-3 {
        fill: #d19f94;
      }
    </style>
  </defs>
  <g id="Groupe_1" data-name="Groupe 1" transform="translate(0 0.048)">
    <path id="Tracé_2" data-name="Tracé 2" class="cls-1" d="M128.384,60.837,109.25,69.36,90.117,60.837l-19-8.684L71,34.93l.112-17.207,19-8.684L109.25.5l19.133,8.539,19,8.684.128,17.207-.128,17.223Z" transform="translate(-59.604)"/>
    <path id="Tracé_3" data-name="Tracé 3" class="cls-1" d="M109.954,104.914l-19.069-.064L81.254,91.976,71.8,79.023,81.238,66.07,90.853,53.18l19.069-.08,19.085.08,9.631,12.857,9.454,12.953-9.438,12.97-9.631,12.873Z" transform="translate(-60.275 -44.157)"/>
    <path id="Tracé_4" data-name="Tracé 4" class="cls-1" d="M190.5,53.6l19.053,25.827,19.1-25.827" transform="translate(-159.922 -44.577)"/>
    <line id="Ligne_1" data-name="Ligne 1" class="cls-1" x1="19.117" y1="25.827" transform="translate(49.631 34.85)"/>
    <line id="Ligne_2" data-name="Ligne 2" class="cls-1" x2="57.255" y2="25.971" transform="translate(11.525 34.866)"/>
    <path id="Tracé_5" data-name="Tracé 5" class="cls-2" d="M13.917,458.1v14.655H12.841V460.829c-.947,1.043-1.926,2.135-2.953,3.259-1.011,1.124-1.99,2.215-2.921,3.242L1.075,460.8v11.974H0V458.116l6.966,7.673Z" transform="translate(0 -384.149)"/>
    <path id="Tracé_6" data-name="Tracé 6" class="cls-2" d="M108.529,457.4l6.629,14.623a3.907,3.907,0,0,0-.5.112,2.483,2.483,0,0,1-.5.113l-2.777-5.859h-5.779l-1.348,2.953c-.225.5-.449,1-.69,1.493-.225.5-.449.979-.658,1.461-.08-.016-.161-.032-.257-.048a2.428,2.428,0,0,1-.289-.064l-.465-.113Zm2.44,8.186a4.574,4.574,0,0,1-.193-.465c-.064-.177-.128-.337-.193-.5-.177-.4-.353-.8-.514-1.188s-.321-.786-.482-1.172l-1.059-2.584-2.52,5.923h4.96Z" transform="translate(-85.544 -383.561)"/>
    <path id="Tracé_7" data-name="Tracé 7" class="cls-2" d="M198.824,458.9v14.4H197.7V458.9Z" transform="translate(-165.966 -384.821)"/>
    <path id="Tracé_8" data-name="Tracé 8" class="cls-2" d="M236.415,468.458a3.219,3.219,0,0,1-.482,1.75,3.927,3.927,0,0,1-1.284,1.284,6.113,6.113,0,0,1-1.894.786,9.72,9.72,0,0,1-2.311.257,9.962,9.962,0,0,1-1.14-.064c-.417-.048-.835-.1-1.268-.177s-.867-.161-1.3-.273-.851-.225-1.236-.337l.433-.8.642.128c.193.048.433.1.706.161s.578.112.883.176a9.054,9.054,0,0,0,.915.145,7.936,7.936,0,0,0,.819.048h1.027a6.021,6.021,0,0,0,1.637-.225,4.526,4.526,0,0,0,1.38-.626,3.214,3.214,0,0,0,.963-1.011,2.64,2.64,0,0,0,.353-1.38,1.975,1.975,0,0,0-.176-.754,3.246,3.246,0,0,0-.4-.674,3.088,3.088,0,0,0-.819-.706,4.1,4.1,0,0,0-.947-.4,5.2,5.2,0,0,0-1-.193q-.506-.048-1.059-.1c-.578-.032-1.14-.08-1.7-.145a4.628,4.628,0,0,1-1.653-.529h.032a3.656,3.656,0,0,1-1.412-1.252,3.175,3.175,0,0,1,.594-4.254,6.872,6.872,0,0,1,3.981-1.445c.369-.032.819-.048,1.316-.048a6.39,6.39,0,0,1,.9.064c.337.048.674.1,1.027.177.353.064.69.144,1.027.241a9.039,9.039,0,0,1,.915.273l-.417.883c-.385-.128-.754-.241-1.108-.321-.337-.08-.674-.145-1-.209a6.348,6.348,0,0,0-.947-.112c-.3-.016-.642-.032-1-.032a8.385,8.385,0,0,0-1.653.177,5.821,5.821,0,0,0-1.541.53,3.654,3.654,0,0,0-1.156.915,2.042,2.042,0,0,0-.449,1.348,2.241,2.241,0,0,0,.385,1.156,2.722,2.722,0,0,0,.947.963,4.224,4.224,0,0,0,1.429.5c.482.064.979.112,1.477.145a14.712,14.712,0,0,1,1.8.209,5.521,5.521,0,0,1,1.782.642,3.925,3.925,0,0,1,1.413,1.348A3.26,3.26,0,0,1,236.415,468.458Z" transform="translate(-189.304 -383.897)"/>
    <path id="Tracé_9" data-name="Tracé 9" class="cls-2" d="M318.318,458.1a8.726,8.726,0,0,1,3.178.578,8.464,8.464,0,0,1,2.6,1.573,7.584,7.584,0,0,1,1.766,2.327,6.678,6.678,0,0,1,0,5.714,7.4,7.4,0,0,1-1.766,2.344,8.464,8.464,0,0,1-2.6,1.573,8.726,8.726,0,0,1-3.178.578,8.836,8.836,0,0,1-3.21-.578,8.467,8.467,0,0,1-2.6-1.573,7.457,7.457,0,0,1-1.766-2.344,6.678,6.678,0,0,1,0-5.714,7.342,7.342,0,0,1,1.766-2.327,8.467,8.467,0,0,1,2.6-1.573A8.9,8.9,0,0,1,318.318,458.1Zm7.127,7.335a5.706,5.706,0,0,0-.562-2.488,6.467,6.467,0,0,0-1.525-2.023,7.283,7.283,0,0,0-2.263-1.364,7.528,7.528,0,0,0-2.761-.5,7.637,7.637,0,0,0-2.793.5,7.282,7.282,0,0,0-2.263,1.364,6.463,6.463,0,0,0-1.525,2.023,5.753,5.753,0,0,0,0,4.96,6.349,6.349,0,0,0,1.525,2.039,7.279,7.279,0,0,0,2.263,1.364,7.632,7.632,0,0,0,2.793.5,7.523,7.523,0,0,0,2.761-.5,7.28,7.28,0,0,0,2.263-1.364,6.354,6.354,0,0,0,1.525-2.039A5.689,5.689,0,0,0,325.445,465.435Z" transform="translate(-260.325 -384.149)"/>
    <path id="Tracé_10" data-name="Tracé 10" class="cls-2" d="M444.535,454.69v15.3l-11.06-13.114v12.215H432.4V454l11.06,13.114V454.69Z" transform="translate(-362.994 -380.707)"/>
    <path id="Tracé_11" data-name="Tracé 11" class="cls-3" d="M528.658,499.8a.715.715,0,0,1,.53.192.582.582,0,0,1,.177.433.67.67,0,0,1-.177.466.78.78,0,0,1-.53.177.712.712,0,0,1-.482-.177.584.584,0,0,1-.176-.466.63.63,0,0,1,.658-.626Z" transform="translate(-443.249 -419.156)"/>
    <path id="Tracé_12" data-name="Tracé 12" class="cls-2" d="M566.083,472.281l-.883.61-8.555-7.031-.369.321v6.645H555.2v-14.4h1.075v6.4l8.219-6.533.738.674-7.769,6.212Z" transform="translate(-466.083 -384.317)"/>
  </g>
</svg>
